<?xml version="1.0" encoding="UTF-8" standalone="no"?>
<svg
   xmlns:dc="http://purl.org/dc/elements/1.1/"
   xmlns:cc="http://creativecommons.org/ns#"
   xmlns:rdf="http://www.w3.org/1999/02/22-rdf-syntax-ns#"
   xmlns:svg="http://www.w3.org/2000/svg"
   xmlns="http://www.w3.org/2000/svg"
   xmlns:sodipodi="http://sodipodi.sourceforge.net/DTD/sodipodi-0.dtd"
   xmlns:inkscape="http://www.inkscape.org/namespaces/inkscape"
   width="23"
   height="36"
   viewBox="0 0 6.0854165 9.5250002"
   version="1.1"
   id="svg8"
   inkscape:version="1.0.1 (c497b03c, 2020-09-10)"
   sodipodi:docname="scroll.svg">
  <defs
     id="defs2" />
  <sodipodi:namedview
     showguides="false"
     id="base"
     pagecolor="#3c3c3c"
     bordercolor="#666666"
     borderopacity="1.0"
     inkscape:pageopacity="0"
     inkscape:pageshadow="2"
     inkscape:zoom="12.821241"
     inkscape:cx="-5.5176707"
     inkscape:cy="16.326234"
     inkscape:document-units="px"
     inkscape:current-layer="layer1"
     inkscape:document-rotation="0"
     showgrid="false"
     inkscape:pagecheckerboard="false"
     units="px"
     inkscape:showpageshadow="false"
     borderlayer="false"
     showborder="true"
     inkscape:snap-object-midpoints="true" />
  <metadata
     id="metadata5">
    <rdf:RDF>
      <cc:Work
         rdf:about="">
        <dc:format>image/svg+xml</dc:format>
        <dc:type
           rdf:resource="http://purl.org/dc/dcmitype/StillImage" />
        <dc:title></dc:title>
      </cc:Work>
    </rdf:RDF>
  </metadata>
  <g
     inkscape:label="Layer 1"
     inkscape:groupmode="layer"
     id="layer1">
    <g
       id="g844"
       transform="matrix(2.7692308,0,0,2.7692308,0.11193921,2.1380199e-6)">
      <rect
         style="fill:#000000;stroke:#ffffff;stroke-width:0.396875;stroke-miterlimit:4;stroke-dasharray:none;stroke-opacity:1;paint-order:stroke markers fill"
         id="rect849"
         width="0.86435521"
         height="1.4625379"
         x="0.62615567"
         y="0.98852193"
         ry="0.39542508" />
      <rect
         style="fill:#ffffff;fill-opacity:1;stroke:none;stroke-width:2.44907"
         id="rect851"
         width="0.18818945"
         height="0.45198563"
         x="0.96423858"
         y="1.0630604"
         ry="0.11078079" />
      <path
         id="path877"
         style="fill:#000000;fill-opacity:1;stroke:#ffffff;stroke-width:0.396875;stroke-miterlimit:4;stroke-dasharray:none;stroke-opacity:1;paint-order:markers stroke fill"
         d="m 1.0550751,0.26458334 c -0.010666,-2e-8 -0.02115,0.004208 -0.029323,0.0123807 L 0.70711128,0.59560505 c -0.0163453,0.0163453 -0.0163453,0.0426261 0,0.0589714 0.0163453,0.0163453 0.0426261,0.0163453 0.0589714,0 L 1.0583331,0.36232599 1.3505836,0.65457645 c 0.016345,0.0163453 0.042626,0.0163454 0.058972,0 0.016345,-0.0163454 0.016345,-0.0426261 0,-0.0589714 L 1.090914,0.27696407 c -0.009,-0.008996 -0.020868,-0.0119843 -0.032581,-0.0110775 -0.00116,-9.747e-5 -0.00209,-0.001303 -0.00326,-0.001303 z" />
      <path
         id="rect853"
         style="fill:#000000;fill-opacity:1;stroke:#ffffff;stroke-width:0.396875;stroke-miterlimit:4;stroke-dasharray:none;stroke-opacity:1;paint-order:stroke markers fill"
         d="m 1.0550751,3.1749984 c -0.010666,0 -0.02115,-0.00421 -0.029323,-0.012381 L 0.70711127,2.8439766 c -0.0163453,-0.016345 -0.0163453,-0.042626 0,-0.058972 0.0163453,-0.016345 0.0426261,-0.016345 0.0589714,0 L 1.0583331,3.0772557 1.3505836,2.7850052 c 0.016345,-0.016345 0.042626,-0.016345 0.058972,0 0.016345,0.016345 0.016345,0.042626 0,0.058972 L 1.090914,3.1626176 c -0.009,0.009 -0.020868,0.011984 -0.032581,0.011077 -0.00116,9.75e-5 -0.00209,0.00131 -0.00326,0.00131 z" />
    </g>
  </g>
</svg>
